/* XPM */
static char *fc51127bcabb4749997845159252ccad[] = {
/* columns rows colors chars-per-pixel */
"64 64 71 1 ",
"  c #0F0D08",
". c #110E09",
"X c #15110B",
"o c #19150E",
"O c #1C180F",
"+ c #1B1710",
"@ c #1D1911",
"# c #231D13",
"$ c #262016",
"% c #292216",
"& c #272118",
"* c #2C2519",
"= c #2F281B",
"- c #302719",
"; c #342B1D",
": c #392E1C",
"> c #3D311E",
", c #362E20",
"< c #392F20",
"1 c #3D3223",
"2 c #41341E",
"3 c #423625",
"4 c #453926",
"5 c #493C25",
"6 c #453A29",
"7 c #4A3E2B",
"8 c #4D412E",
"9 c #53442D",
"0 c #58472C",
"q c #55482F",
"w c #5B4A2E",
"e c #4E4230",
"r c #524532",
"t c #564933",
"y c #5C4C33",
"u c #564B38",
"i c #5B4E38",
"p c #5F5037",
"a c #5E503A",
"s c #624E2E",
"d c #65502F",
"f c #614F32",
"g c #645234",
"h c #6A5635",
"j c #6D5936",
"k c #64543A",
"l c #695739",
"z c #67593E",
"x c #6D5A3B",
"c c #705B37",
"v c #725D3B",
"b c #75613E",
"n c #79633E",
"m c #6F5E40",
"M c #715F41",
"N c #756241",
"B c #7B6642",
"V c #7E6944",
"C c #7D6A48",
"Z c #826C46",
"A c #846E49",
"S c #877047",
"D c #887047",
"F c #86704A",
"G c #8A734C",
"H c #8F784E",
"J c #90774E",
"K c #92794E",
"L c #8D7750",
"P c #8E7851",
"I c #937B51",
/* pixels */
"@7yxGFVSvzvzNNAvgat<X<ytetVztrNPPDZh078mVqOo4dgVGccdqeqtuqy8ey1@",
"+79xGVVFnczzrgCl9ra1X,urtzZgtrMLHGBvhhvFVyOO>hvbVvcgckq884889e1#",
"+39kABVFbgmmqzVg8tb5X,uukbFytrkKJGBbhvnZVy#X>gvjnvvsvnbue1818e8#",
"X18wbzNZjgVVjNSzerB6X,tubbFkyiBDJGBBhvnZAy#X:djvnvcdxVSbr8868e1#",
"X18ezxvMvhZFnbFbzex9X=rrkvAcvzAFGGnnhcnZZs#o2hhbnbcdjVGme3e1181$",
"X188avNvlvFDVbGBkvZq+=uryzSbCBCGKHnnzcBZSp#X5ddnVBjhjVSxe188888&",
"X188revahcFAVbVvvZZ8+*rrkNAbVFGGGPBBhbnZAg$X4dhnVVchcVSvr188181*",
"X166u8kBxcDAZNNlnBVe+&rrkvVzZDPDGGVVdbnVAd#X1djVVnvdhVGze183886*",
".3wfNykAxvGFGZGnBZB9+&7ryamlBAGAAGBngbBVFg$.>dvGGncdhBSNq8q8181%",
".6vnztrkvvGZGDGnBBFio&errtxlvZFACZNjdcnbAl$.>dlSGVbhlBSSbgk8888*",
".7by988VvvDZGSFbxkCu+&7r80mxBGGAlBBvgvk9by$.>gcASAchcBGSncq6188*",
".8vw97uFbcDZJZZnvVL7+#7rrtxMZDFZwvBbsjbql4#.>hnLGAchlVCSnwz8488-",
".8wwr8gFvxFZGZDnBNl6+&7e87tpZLZxivnw098863#.-svybPchcCSGnvnp9qq=",
".3337rzxvvFADZDbvBm6+&79e7yyVGZMbCbzws8ee3@X;8vyxGchvCSGnbnVp88%",
"X383eyBBbjZADnGvlvk7X&4t88lzVFFvvvrkgxgr86@X>gnBgCndcVZGnbBCq98#",
"X9zsgkVFvsZFGZGvlZFr+&4r88lzNAGBvCkzsjk985@X>hbnqMndcnSGnbCGwgw%",
"X0BvlMvVb9BGFBGbbSFp+%e9eemvzlmvBGnns89e83#.2hvZVSchcnAGcbFGbnq$",
".9vwt79iy6rykxGbnAGyX=yee9atyiMzZHnng9gmr3@.>hcPGBcyhBSFncVHbnq#",
"o3wqvtypgepsCBFbBFFqX*bke773tlBBZHCBhyBg83@X2dcDAAcysVAFnbnSnV8#",
"o38q87tBnxVZFxGbnSZqX=Bbe776rmZZZGBBjjBv83+o5dhZVVj0yVZVbxBVnB9O",
"@36887rZbbDZZxAbnZn9X;Bb8784pFAFDJBZchnxq6Oo5dcZGnj0gnVBnxBnbb5o",
"@6778wlkkkFZZxZvnZV9X;Vnt486kClmAGCZhdng81oo5dvGGbj0qZZBNgBBck4o",
"#66788rr6eBBGZAbVFV8o;CVlit7rptlLHBZhhvq81oo30vDZccs9hVZnjBnjq1X",
"#787879r7gCAKDDbnFV5X,GCkyt7rptiCKBZhhq883.o3syFZcjd0qpnbgngbu1X",
"&77788ee9jFFKDGBBFV8X1Czttp7rtipzGBZh05r8:.+:9jnncjdkVVbyqncvy1.",
"*7678uBVbxFAIDGNnFV5.<peryAwtuplvGBZg86981.$10vjngd08vVVjwZbxy1.",
"=7rrryxSnxFAHDDbjCx2X<yprivgiugBGHBZt3677;.#16wvngw89ylZBgVZgi<.",
";7yhwBzZbcGZHZAlyzl>X1zVgkiykkmDGGbN713981.$:15bcjjsywpZCwjbwq,.",
";egvbZbZcvGFFjme8tb;.1BVVvBhCADGFAfi73387;.%<:9bcccs6ezFB8pk98; ",
",ybnDFZZbbFZFyy78ep3.8HVBbZvZDAGFBtr73485;.=,>8xhjxd9gVAk5yq56; ",
"6bbbZDACbbGZVyy86ra<.8FVZnZbZZZHGJbf63688= =111scjcdvnZBg3e838=.",
"5BZnZDZZbxSVZjle6rp=X1GVnnFbZnnGJJNA633te*.;1:8gbjgwzVVBx588gh;.",
"7BBnZGZZvvAZDBNr7er-X7GANMANZBCJFJvFf9sMf-.>13sfy89wvZBMf6ahjc:.",
"7bbBDGBBvcZAZlf77re-X6CBNlBMAZDJJJbZxhvDf*.699g8e49dllxf0gBxwz-.",
"9ZBBBMZZcvDFnxye7u7&o3artemMFZGGJJNZxhvDf*.>w07re79dllxygdB989-X",
"9ZBBNfZZcvDJvvle7e7&o3irtekMFBDJIJbZhdbFf&X6969re70dglgMbbBaff-X",
"0ZBBZCFZcvGDnbMr7u6&X6ire7akAnDJIJbZwdxDf#X371687thg00yivvVVBh$o",
"0ZBBAFNZvvDDZjMr7e6&o6arr7wkBMDJKJNZs9cFf&X;136770gly888ghBZbl#o",
"yZbvnMNAvMDFGbhr7re&o6irr6tfMMZJIIbBs9xFw&X,116ee8wxktr88lBZMh#+",
"fBwrilAMjvFJJFkeaMu&o7irr7ttlxBAGFNZw6hFt#o1366ee60xgifptcBZbg#@",
"rre7rtyrrvDJJGBeaNa&o7iet7afMMMMZGBZf7gDw#o3633988dhjzvBlxnBvg@#",
"6re7reeihMMZJFDtrir#oeler0MvBBCCNFVVs8gZa#o3ww9776qkjNBFvBnBBwO@",
"6r7ererxjftDGGFleii&o7ar9aVMZAGAALBZs89xr#o1706ws75vxCZZvnBVNw+#",
"67e7ttlAhrrBGADxrBf#oelkrfNvDDGAAFNZhftt3#o384469w0xvnDFbvlZbfo#",
"38e7ykBVfrrMflDvkGd#oaZvewMvADACZBMNhgha7#o7j0666rsjbZAFvbkCby@#",
"3ee7lBBxrrrweraibFf#+kCnrtCBDAABFNgxfshx8#o0bg667gdhZZADvVvBvro#",
"6e87lVVk6eyt7eiefGf#+aayt9mBGZILLFkk0sjv0#o7jg660dsxZZZDvVNbz6@#",
"6reeaAAxtfBJnyr77mf&+ilferxMDMIIIPmk0wxZt&X7vjffhhdjZZZDcnbvw6@@",
"6r77iAAVvvnJNrr76kp@o8kettmxDgGIIPnnsdxNq%.4jhhbjjsjZZZAbvgrq7@+",
"3767lGCClnAJv7r76mk&@8a8tiMjAdVJIDBVjdkbw%X3jghvwhdxZZZDbhdu77#o",
"3867BGvarbABf7r76uu&+7keitgaVsAIIGnVhskzq*.8jzhdwhsbVZFFbbvhgf%o",
"3r6iVBlyfglByere7u7#+7art9ggVwJIIHnBhkpCs-.3vj00hjdjCGZZvbZvnl*.",
"7kifAlirareller77r6&X7aeteailfDIKJnZhhyCz-.2ywqwdcdzZDZZvvAAbg*X",
"6vBvGvMxitai7rr77ee&+earretetaFIKJbnskbGx;.;wq9dcjhhZZAAcbAFvv;.",
"7BVBGVMe7rlmerre7u7&Xeirr8tumvJLABgg6gxVv;.;8dwjBvhhCZDFvvGAvb1.",
"6BDAACi87rra7eee6ue&X6urttkkFhFCmit76g9bv>.;swgkBbhjnZSFvbLDbb3.",
"<CJADFk788rr8tr7et7*o6iiklVvGgmkkur77w6mb1.;swczBvjxvZZDbbGGbb6 ",
"<NLDAGVBt8rt7rrrei7&X6aimkBNGgkiiir7677iy1.*1wxBZjxzvZDZnvFHNC5.",
";vGAAJZAt8rrrrreere*X6iukymMFgiyuuir98err1.#1dvnVdjdbZZSbNBGbB5.",
"-vFCAJVAh88rirr7ett*X6urawmxFlzaigkgft7rr1.#5wjBAhjdvnGZkhnZbV9.",
"-hVVAGVZk77itar8umk=X6rrtyMvBmzCZZvxkwqyt1.#8wyZGxhskgBFvybBvC0.",
"&hVBFGZVk7ritfyeeir=X1tertMBCgAGHGnxh0yzz4oO5gbZFvh0rgzvkwhlbZwX",
"&fnBDDVVa8tifBvirre,X1tr98mvNgZGHGvy099yj8oo>qkVbbjw9glky9hzxByX",
"#ylvDDAVhkxkvVAvaue,X1ttrrmvkyNGHDB976erxqoo49tBBcjs8ryif8t79z9+"
};
