/* XPM */
static char *_79bf9b7854c4a44fc51a2840aa3bf16[] = {
/* columns rows colors chars-per-pixel */
"64 64 161 2 ",
"   c #070604",
".  c #090704",
"X  c #0D0A05",
"o  c #0D0D09",
"O  c #140D06",
"+  c #180F06",
"@  c #120F08",
"#  c #180F08",
"$  c #0F100C",
"%  c #161007",
"&  c #191007",
"*  c #15130B",
"=  c #1B140A",
"-  c #17180F",
";  c #1C190E",
":  c #151710",
">  c #191710",
",  c #171912",
"<  c #1C1C12",
"1  c #21170B",
"2  c #231B0D",
"3  c #2A1E0E",
"4  c #311E0E",
"5  c #221E11",
"6  c #291F10",
"7  c #1E2115",
"8  c #1E2118",
"9  c #2D210F",
"0  c #33210F",
"q  c #39240F",
"w  c #242214",
"e  c #2B2413",
"r  c #2D2916",
"t  c #242619",
"y  c #292618",
"u  c #26291A",
"i  c #2C2A1A",
"p  c #332512",
"a  c #3A2511",
"s  c #342915",
"d  c #3B2B14",
"f  c #332D1A",
"g  c #3A2E19",
"h  c #3E3017",
"j  c #35311C",
"k  c #3C331C",
"l  c #3D391E",
"z  c #2E3524",
"x  c #343422",
"c  c #3A3521",
"v  c #363925",
"b  c #3D3A23",
"n  c #363C29",
"m  c #393B2A",
"M  c #422E15",
"N  c #482E14",
"B  c #443116",
"V  c #4A3317",
"C  c #44341B",
"Z  c #4A3619",
"A  c #45391E",
"S  c #4C391C",
"D  c #503416",
"F  c #533619",
"G  c #533C1C",
"H  c #5A3E1C",
"J  c #443C22",
"K  c #4C3D21",
"L  c #513E22",
"P  c #3C412B",
"I  c #56401E",
"U  c #5B421E",
"Y  c #62451E",
"T  c #6A481F",
"R  c #454026",
"E  c #4C4324",
"W  c #43432A",
"Q  c #49442A",
"!  c #47482D",
"~  c #4D4A2D",
"^  c #544323",
"/  c #5B4421",
"(  c #564926",
")  c #5C4A26",
"_  c #514728",
"`  c #544C2B",
"'  c #5C4E2A",
"]  c #55502F",
"[  c #5B512D",
"{  c #4E4E31",
"}  c #574F31",
"|  c #555232",
" . c #5C5533",
".. c #575837",
"X. c #5F5A35",
"o. c #5E5B39",
"O. c #614621",
"+. c #644A24",
"@. c #6A4B23",
"#. c #614E2A",
"$. c #63542C",
"%. c #69552B",
"&. c #67582E",
"*. c #6C5A2F",
"=. c #735429",
"-. c #71592D",
";. c #7A5A2C",
":. c #625530",
">. c #635A33",
",. c #6B5D34",
"<. c #655F38",
"1. c #705E31",
"2. c #6B633A",
"3. c #6C693E",
"4. c #746232",
"5. c #7C6533",
"6. c #7A6738",
"7. c #74693A",
"8. c #7A6B3A",
"9. c #7F703C",
"0. c #686443",
"q. c #746C43",
"w. c #796E42",
"e. c #7E7241",
"r. c #84602E",
"t. c #826F3B",
"y. c #87733A",
"u. c #8B763F",
"i. c #837341",
"p. c #8D7A42",
"a. c #847C49",
"s. c #917C42",
"d. c #847A53",
"f. c #8D824C",
"g. c #948046",
"h. c #9C8446",
"j. c #928048",
"k. c #988248",
"l. c #9C8A4C",
"z. c #908252",
"x. c #9C8D52",
"c. c #9C9050",
"v. c #A78D4A",
"b. c #AF964E",
"n. c #BA9A4E",
"m. c #A48F50",
"M. c #A89452",
"N. c #B49B54",
"B. c #B9A156",
"V. c #A39461",
"C. c #A79965",
"Z. c #B1A360",
"A. c #BEAF69",
"S. c #C1A154",
"D. c #C6A856",
"F. c #C0A75A",
"G. c #CBAC58",
"H. c #D7B25B",
"J. c #D5B96A",
"K. c #CCB87B",
"L. c #DBC68F",
/* pixels */
"2 ; w k e 3 ; = = O % o @ % @ @ O * > 2 3 = 3 3 + + O O = = X O @ . . o o o $ $ * < 5 w > = % ; 1 & % = = 7 = = = = 1 O O O + O ",
"3 f w r ' E A ; f % O ; - @ @ @ > w @ = 2 3 2 = + + O O X O X X . X o * : * : : : r c C y 2 1 = 1 = w w e e A = & & & O O & & O ",
"9 3 1 & e e s ; 1 % * % X O X % y t $ O = 1 2 = O O O X X X X . X o % ; ; 9 w 5 2 5 s k r 5 e = = y y + = @ A K < ; & % O & & O ",
"9 1 & & & & + & % O < w 5 = ; 5 y < * * * + % = 2 h e p w 5 5 5 : : , < s d 4 3 3 C s y r , w % = w > + & O - J $.^ 1 O + & & O ",
"3 % & & & 1 = = O ; w r w < w r f f ; 5 5 * & # * C A j s - w y < > 5 d C S L H H ^ H s w < 7 u 9 O O % % O O > $.:.l = O % = O ",
"3 = & & = s % O @ = e w 5 - 7 s k R < ; > > > > < r w w : : u < 8 5 s C H ^ u x x b / L f 7 < j ^ r - = & % = % 5 k s 3 O % = & ",
"1 = & & + = O % - w w < 7 , - w f Q 5 > : : > < < < - : : w J - 6 s V H #.m x v b 7.` / G i 7 h &.k 7 _ 2 & = & & = = O O O O + ",
"1 & 1 & & 1 2 - ; < w , < ; < 7 f c < 5 e 5 5 2 < w < ; - 7 y - 6 g L #.Q J v v z i.g.] +.S y K *.k : p ( 3 + + & = & O O O O O ",
"s 6 ; ; s f w % * < e e 3 3 w e i r y p C M 4 a V s s 9 e e r w w k L #.` } ~ W P [ ) E g Z 9 e C e @ % r E 3 < h r f p % % - ; ",
"s e < ; f k % O X % 3 V d h d B Z S C g L N q M q 4 4 a N B B h s C L } ^ J Q m <.,.1.) f r y r 3 s 5 2 2 e 5 ; C s s e - - < 6 ",
"2 1 1 1 1 3 X % O = 3 Z I +.U Y S J S A @.=.L =.T T O.H h f j S C C L C S 2 a g d d.i.J p p 2 e ; 2 = 1 = = = % 3 l A @ = 1 2 % ",
"2 1 ; 1 2 & O O % = 9 Z / :.' c ` ~ s S O.g 6 c ~ &.k.N.Z.E ( [ W c C C C C p 0 4 d #./ Z s a 9 9 1 & & & = = % % 1 = O % % % % ",
"O % % @ % O % O O = 9 B G C k f 3 3 r K / w ; p _ i.a.x.c.u.R 7.o.c c J C C p p 9 a Z d 9 p 3 2 = & = ; < 5 = 2 f e l ; % % - O ",
"% * * O * ; ; @ @ % 3 9 d Z Z  .J e s K H d 2 3 a p.F.<.f.L.K.M.! ! J C J S g a s L V d 9 9 = + % & e y i r u 7 ^ l I f - ; @ @ ",
"- ; 5 5 < ; < e = O ; 3 p h C Z C 3 r L ^ h ; 4 q %.D.S.X.y.n.h._ <.0.J k C S C Z Z a 9 3 = = & O % = w r u 7 7 R h ( h < ; * - ",
"; * - * < e r s e @ O 3 s h C L f 3 f L / s 2 q a G ( b.G.] 4.h.Q ..q.~ C k g 0 p 9 2 3 2 ; = 1 % 1 1 1 < ; ; 2 r l A e * = * ; ",
"@ O X % % 1 % % ; ; 3 h C f C S 3 9 r L ^ s 2 3 V G S E b.H.X.~ v >.w.o.v g g 3 9 9 2 2 ; + O % = 1 3 1 ; 1 1 1 1 9 p * % % = O ",
"O O O O % O % ; r w s h 9 ; Z C e 2 f L / s 2 3 q 0 q [ 3.B.B.{ x ] | o.m k g 3 9 3 = % + O O O @ = 1 = 1 1 1 3 1 1 1 % % % % O ",
"O @ X O O O O ; 7 e s p % = Z C e 3 s L I s 2 3 M D M l 7.9.c.y.W ,.| ..W f g 9 p 3 2 1 = O O O @ @ O O O @ @ % % % % O X O O O ",
"O @ O O X O % % = w 2 = 2 2 C C s 2 f L ^ p 1 3 M V d q S 7.c.F.q._ b J J f s s p 2 2 = + X @ % - 5 ; @ O @ O @ O % O O O O O O ",
"@ @ = ; @ @ % % = ; = & 2 9 d C s 3 f K I Z s a V G M Z K h 4.s.( Z Z d 9 e e 9 5 1 = % X O * > < r h - - * * * O O O O O % % $ ",
"w ; < w = < < w e w ; = = 2 9 s h r r C Z S Z Z Z G G G I I I Y H S Z C d r 5 ; = g A E e * : : < s A < - - - y ; O X % ; - < i ",
"< - - < ; 7 < e f t ; 5 = & 2 p p 9 w s s d V Z Z Z G D V Z V S V C h d s 9 ; ; 7 f E J > : s 3 3 w w - : - s A e X @ ; ; - r A ",
"- - - - - - w e r 5 % O 6 + + = 2 5 = p s p d s d q q d d d h M d d 9 3 2 2 ; 2 % % = < > : B B C B w < < _ $.r O X * ; O O - r ",
"= % * @ @ % - 3 ; = % % % ; O @ = ; > 5 9 p e 9 9 a p p q p p p a 9 3 1 ; = * w O # 5 < w < L G q Z f 7 b C.j.J 5 % < = % O 1 % ",
"= % = % % * O 1 1 % % % ; k 5 + @ O ; 1 3 2 1 1 2 3 9 9 9 9 9 9 3 1 = % O % = O = f f y y g H O.S I Z e ~ V.e.,.l r < = % = % 1 ",
"1 = * % O % & 1 = % - % > r 2 + O @ > 1 = = = = & 1 3 2 3 1 3 2 = % O X O @ * % 5 k y r C / @.B 2 p s s E z.9.$.l R ; % % 1 1 % ",
"% 1 ; % @ % 1 3 % = = % O O O O @ O > O + + # O & 2 1 & % % & = % O O X X @ @ 2 h k u Z / =.B 9 2 9 9 h _  .] ( w J f % % % % O ",
"O O 1 w 7 w w w 1 & + + + + O O O @ 5 * > = = = 1 1 = % 2 * = % O o = X X X = ; k f L Y Y u.h e R &.g 2 1 = 1 3 2 f * % O % O O ",
"% O + 2 ; ; < e ; & + + + + O O O @ w w < < 5 = 1 w < < E w < w > : J Q ; - ; 2 A S O.@.p $.d 9 2 g B 1 = % % % = = O O % % @ % ",
"< % O & 1 & & ; = & & O O O O O X ; O , , 5 = % w y - - f < - < > * J K J x ; 9 h H @.Z = 4.d p 9 p h 3 3 1 = 1 = O O % ; ; - - ",
"e < % O & 1 1 & % O O O + O O O o > X O , ; # = 1 ; 7 < S w - % : - r g k < ; s V Y G 0 1 8.d s e p s 9 1 = % = O O O - 6 w - - ",
"h h w * O & 2 = + + O + # O O o - % X % = & % % & < r < h r o o X , 5 r f < ; h H Z Z 9 4 Z 3 s e h B 3 e 3 * O O O = ; 5 < - < ",
"' E A * X O & = + O + + O O O O % X @ % & O = = ; r p r r K % o O 1 < 5 < - 6 C Z B C Z 4 0 1 3 ; h C = = > * @ @ = 5 w e 5 < u ",
"_ A S l ; O O O 1 + O O X O o o o o O % O % ; ; f j r 3 2 e % @ % 3 p B g s f g C M 2 C h d g a a C V 2 = s = , < ; 6 r u 5 t u ",
"r 7 w s k s ; = + & # O # X X > % @ O X % ; = 2 r e = = = h j e = 2 s S S A g L b x x J ] p._ x z _ O.S w f f ; * e < - < 5 t r ",
"t 7 f k f k r w ; O = O o O o o X @ X O ; 2 r r r w & 2 E [ E l 5 1 s F c c x S $._ x z W m.( C k C ( O.A r y ; w 5 7 5 7 5 7 u ",
"t 7 j #.J k S b r , > * @ o o X X X X @ < e r r r < < e l A ( K 5 2 d S L <.c J K K x n { f.L ` C e.2.R / Z e 5 w 5 7 7 t t t u ",
"t t r l $.r ^ f u < k J J :   . X X X % e e u f 7 7 w 7 u E l ( e 1 p L J o.J C E h r m ! x.p b ! l.s.W K +.F r r u 5 7 t u t t ",
"7 7 t i k t k u e 5 s b f .   X X X o 6 r f u u u j l v i *.$.r r r d F k } _ c L Z M d b A.6 c P ! 7.t.$.( O.S r u 7 7 t t 7 < ",
"S C l f k f f r r p e , o X . o * @ w p f r t 3 2 ; 1 3 2 l 1.] w C ^ I ' | ` c K C p 4 4 >.f [  .v  .v.s.8.R Y S A B f k V V Z ",
"I I I I A S S Z k k s 1 X .   X @ % e 5 % % 9 3 3 1 1 1 1 ; ` [ r u H / _ x m K A A S p 3 4 %.t.,.W ] p.h.8.X.E Y I G Z Z N V S ",
"E ` X.2.X.J u c J f 2 * X . . . $ 2 e ; & & 9 9 2 3 e 3 1 2 l l j g ^ / $.` { E x C A g 9 6 O.S p l 3.c.l.l.h. .l x E A j R E J ",
"8.u.9.1.%.C y C C 9 ; = X o o o o * 2 % % & 1 1 2 1 1 1 2 ; ; w w s d H / ( E A g k C B 9 3 Z C d d $.l.M.9.-.&._ r A E f g f C ",
"' 4.) h C 3 9 3 2 2 ; = @ $   X o % 2 * % & 1 1 = & = = & 1 & & = 9 a h V Z B s c k k A s s ' ) 4.] ! B.J.8.p d A p d V S B B M ",
"G S V C h d d d p e w ; o :   o X % 1 2 % % & = 1 = = & & = = = = 1 0 s h B V 9 } m k C C k / / A h h I @.S S Z Z V V B S G Z Z ",
"C B C M a d s d s p 5 % X     . X . . & * < 7 7 7 < t t w i ( &.g = & 3 p d d h 6 J m f A S L O.I B p V Y V S S Z V d M M Z B B ",
"s a 9 9 9 3 3 2 2 2 = * : , o @ 5 < - * = ; 5 7 7 w 7 t u i ' ,.6.p & & = 3 9 d d 2 m i k A L / I B B U S N M h d p 9 q p p p p ",
"2 3 2 1 1 & % % % % ; w 5 - $ * w , , 5 > 2 e w < 8 t u u j 4.' #.C h = & & = 9 s s w i j h K I I S I Z d q p 0 9 2 2 9 2 3 3 2 ",
"& & = 1 3 & % % % % % X @ , : : 5 , : , < w w w 7 < 7 t t j j j ( *.4.B O & & 1 3 p p 2 r f A S I S Z d d d 9 2 = & 1 = = = = = ",
"@ O % = 3 & % % O O O O 8 u : < < > : ; w d C f e g y w 7 7 w t l *.4.5.C O & % = 3 r 2 < r k h B V d q p 9 3 = & % % O % % % % ",
"O O O O 1 1 = % O = 1 = t i < 8 r d s d M Z G Z V D G Z V N S Z h E ' 5.*.h % @ O = 5 3 ; w e p p p p 9 3 3 1 % % % @ % % O % O ",
"O O @ @ % 1 % % # X y f y z 8 5 g Z h B V I T D N D U H H D H U +.k k &.&.R 3 O X O = ; - * ; ; 3 9 9 1 & % % @ O X O O O @ @ O ",
"w : - = * 1 < 5 e b 8 J c J m 8 g L L +.+.;.r.;.#.b ` E c j b R %.@.k l ^ R i - O X O = @ @ 1 1 ; 2 & O % * r r - - = * * % * = ",
"< : : < < * = 6 k E 6 t x c 8 8 g Z E R E &.[ W P <.X.W b ! P ~ | %.@.k j j y t = O X o o X % % % % O O % < t e - - ; = - - - 5 ",
"= < < < < - - 1 C ' 6 > > 5 < > e Z I / ^ / %.I S #.C R b w.<.[ j f S V w 5 2 = ; X X X X o o @ O % O ; 2 - e w - < t < - - - < ",
"= 7 t 7 y w % & 2 f = X : , < , e C I / s S T B d q B C a C Z ( A 3 a d 3 % % % O o . X - : - ; - - - 2 6 < 5 - - - j S t % % % ",
"7 w 7 7 i l ; O + = r % < ; t t e C ^ / s a U I a B h M N M 0 s h a B B 3 O O O . o X o : @ 5 5 - < < < 5 w 7 < < j ] u.h * w 6 ",
"r y < < s &.l w O O & O > y u u w B I / G I G Y Y I S I H H G I I h d 9 1 1 O X o X o < - $ 6 r w r r r u r t 7 7 ( ( E ( e ; 5 ",
"s 7 7 7 7 ^ ) R e O O = > ; ; i t h S S V Z S G D I H I I G I I h d 3 1 2 % O X o @ * ; % o ; ; ; r r ; ; % ; 2 @ k R % t l 2 - ",
"; % ; ; 9 s d g b r O O = O O ; u f s h h V M N V Z D G G Z Z V s 9 1 ; * X X X @ @ - - @ @ % X 1 = @ % & O 1 1 % 2 r X @ ; w % ",
"1 = = = 1 2 = = k k 2 O O O @ O 5 < 9 9 q p q d d d B h d d d s 3 2 1 * O X X X $ $ o @ o @ % @ 1 1 @ 1 = @ & 1 % 2 3 X X @ * = ",
"1 % 1 ; = 2 = + 3 C q.O X O X * % % 2 3 2 1 1 1 3 9 9 9 9 9 9 3 1 ; % X X .   . $ $ X @ * @ % @ 9 = @ ; 1 O 1 & O e k @ X % 1 = ",
"1 O 1 % # & = + + = f > O O X O @ * ; 3 w e R 9 & = 1 1 2 ; 1 1 = @ X . X X o $ @ : : % % % % O 1 & O % 2 % % 1 % 1 p @ O % = % "
};
