/* XPM */
static char *_aaaa911cae744f6c56c437b56313e2f[] = {
/* columns rows colors chars-per-pixel */
"64 64 90 1 ",
"  c #453D36",
". c #4C4436",
"X c #4E4639",
"o c #4F483B",
"O c #504739",
"+ c #534B3C",
"@ c #584E3F",
"# c #5A503E",
"$ c #4D4842",
"% c #4D4949",
"& c #554E41",
"* c #584F41",
"= c #534D49",
"- c #575143",
"; c #5B5344",
": c #5F5847",
"> c #55504A",
", c #5C5649",
"< c #5E594B",
"1 c #5D5653",
"2 c #5E5A55",
"3 c #5F5B5A",
"4 c #605645",
"5 c #615847",
"6 c #61564A",
"7 c #625B4D",
"8 c #685F4D",
"9 c #635752",
"0 c #645E51",
"q c #645D59",
"w c #66604F",
"e c #6A614E",
"r c #666152",
"t c #6B6454",
"y c #6F6857",
"u c #676158",
"i c #6D6659",
"p c #6E695A",
"a c #706755",
"s c #726956",
"d c #756759",
"f c #736C5B",
"g c #786E5B",
"h c #77705E",
"j c #7A715E",
"k c #6E6761",
"l c #6F6866",
"z c #726C61",
"x c #786F63",
"c c #767060",
"v c #7C7563",
"b c #7F7866",
"n c #7C756B",
"m c #7F7969",
"M c #807763",
"N c #827A66",
"B c #857D6A",
"V c #887F6A",
"C c #857D71",
"Z c #887E70",
"A c #87806D",
"S c #8B826D",
"D c #90866F",
"F c #868070",
"G c #8D8571",
"H c #8F8875",
"J c #8D857A",
"K c #908772",
"L c #938A75",
"P c #988E77",
"I c #958D79",
"U c #988F79",
"Y c #9B9077",
"T c #9C937C",
"R c #A0967E",
"E c #A2997F",
"W c #9D9681",
"Q c #9F9983",
"! c #A09780",
"~ c #A49B83",
"^ c #A89F86",
"/ c #A69E88",
"( c #A89F88",
") c #AAA087",
"_ c #A7A089",
"` c #ACA38B",
"' c #B0A68E",
"] c #B3A88D",
"[ c #ADA691",
"{ c #B1A991",
/* pixels */
",NSGGGKKLYLDSSNNNNbNNSSLKDDLYYEYTULLSvY~~!TKSsMsi0<<<707<<,<w0w,",
"qX-;;,;#;545easassffggjjANSDKKYYWWRWNfTTTR~EPLbnx000,7ru<77<,<,>",
"-,,-+++oXXXXX.OO@:7yasggggjMNASDLUTR/~~~~~~/``MNQBimhst80<,<<77<",
",,,<<<<,<5;,;-@++@#5asMjNADKKKKDHLUPPTTT!~~~[(~~``/_//LKAvhptr<,",
"xfyr<<-,<uiw77<<,<,:;8afgjvvjMvvMBBBSDKKTTTYRE^^```]^]`)`^TKHANb",
"TLSBBbnp,<,<r7<wthhtrethjjjvNMNMMNBSKKLLLPTTYRTY~T~E!R^~/`Gb`'`~",
"hftyfhvbmbvvhvNbvvxvfxhfAKKSSSSSSMjSBSSVKDDSSBNNMNNNNMMNBMSSMjhh",
"o+&--;;;,:77reyyffhvNBKLRYTRTYLLYMSBMfsaee78888575587844#@+@#+++",
"2<<0777<<7<<<tryfccCI~^/~^~^/^RRTPKSNNMgga5yte88w5;;;;5:*+X++-,,",
":707<<u7<,<wuutfffvHHILYYTT!RRTTRRTTRRTYYTLPTTRTTYDGANBbvbxpuw<,",
"mbmbbhccchfvbbbABKLLGNvhghjjvMjvjMjMNNSSIL!!E^~^)^))')``([^~TIIm",
"THchpfpzbxbLUT~E!/WLIHBNMvjggjvMNgaNMBBSBGSGGKZSDKGLKKKKKGKKLIIU",
"...oo+Xo+-:thhjvbv;,gBgMVBVSGGSDLMgLLKKDSSSbhvvytee7<w;;;;;##ooo",
":777r7$-:-+X+@;<es$>xHKLLLKLLPLPPTTLLKSNNfse87544#@#@@+o.Xoo@-,;",
"07>,77r7<<,wywttefNxNKBHPPTSVLLLDSSMvgsae875-76eyssfchhstww,,,w<",
"prpci<7<77<tstww4180,t=tvgggte775;;*--@+-4e00ivNSIITTUIPSAmvhhhs",
"bcbbbffytrtrrrttrrwrowprwe7;;+;;-,u<,<05<,<<0eahKLLILPTTTRTGbbbj",
",<<w<r<hvvvvhjhhhjvjB>rNvN0=yhvr7<,,<<<<<7<w75;-&-;;;,;-#+OXoO+@",
"<<7w,o,;::7wwtttyyshv7bW^Y2%bLLKbhiwti0r777<77<;-&++o+&-,,,<7w<<",
",7<<rr<<<<<2w<<trww7tbSBKLMvW~/~~UTULGGAABChpu<><7<<7<<<,<<7<7<<",
"<777w07<<r<w00<,,<<,--8ahNKLLLTTE^)`LC!'/~))/TNiNbfhftittt+<tti<",
"ctr7,kr<-,<<<<<7707<<-o;:tjNBGGKHLUTPvT(`)_`]))~^/)~~TTYUHbvFAbm",
"yr<,ruu<;<<r707<,<87,=,-+o+;esfgvjMASSSLYTWRE^E^~^RTWYIPLKSAhtpy",
"r7<<<<77<<<>7<,<0<15,700<75:-;7ysfssfsfffhjjMNBBSSSBBbvsw;@++-;<",
"<7<777777<<7ivrr7077<urwt02sfptybMhjhfsssaaffgjMMMBjf7;-@-,<<77w",
"7<70<,2u0pcmAmFGHLHLGGAAAvpfvNNSLPUSKKDLGHDGSSSSSbMsew<<<w<:<<2w",
"077<7pfvHTTQ~/)_/^//~TUGBvu,rfvAKGLvKKSDPPPPYKYTYYGbjh,<<<<<<w<w",
"<<0phmHTWTTTPPLLLLLLUYLKMypi7758wtsgjgjjjBAGLLY~WRRRSBjtw027<<<,",
"ccmbHQPTTTTYYUKKSSNNNse:;;<78777<:<7aNSSGKKPLYLT~/^)`THGFvhrrrrf",
"rr70hvbjbbASSHSASNNfe777ee7w7<0<:<;,#+7tfsggMjjbjjvghsw;77rwrtyw",
";-&ooo<yjASIYT~RERDvgfy<<0<,7<<w7<<<;,+.XXo+O+O+O+o..o--;wu<<<,,",
"077<<wtAHHUUTQE))``)YLGvfit23<707<<,,<<<7;-;@@-,<;:7w<7<<<<<7<<<",
"9<0uyvSULKKVSSSGDPTE^^~R~TPHxnBBBbNNbbv0pfturr,-,,<70<<,,,,,,,,,",
"HIWGnx`^RTPSBjsaaaat7fjBKPTYALLF/`)^^/UtfWTIHHGBmv720tipfzpfvbAF",
"```i>WERPKVNe47;++X&;XX+-478z7vsvBSSKP!&f~TR~/`__{LpW`)'__`__{JA",
"WLGIWSDDSBBM085we5,<75<:;;*0 -58775888dBNgvbNABKLLTYWT~^~_/~/`pT",
"BBBBNBVDLTYISKSFSvNxhhvBBSbNafste75,4*-@@+@-;;:weeesfghjMNBSSSKS",
"MNSSSPYPTEBlB^YIKBNbbbvhZZBbfu77<,,;-&@----+++X+ooOO+###4458ee8j",
"458eeaasgvvfvBNjsw77;;;;-,-+;,;<57<<<<782<<,<:<,,>+-++XX....O++;",
".....O+++*465:57w<:;>,95,,<<,<<<<7<<0,0,<wzvp7>w7,707,,-*#-+OO.X",
"taettu80rwysxvvNNBvw<<,27<,<<,<<<,<<<,,<<<<0,,<<u<,,<77785<,<2ww",
"LLLHGGAGKLLYQIHTTLKGBf,9,wrw<,<777<<77<,<<w<ww<rtfcmvmmNAAKIIIII",
"]`{]``{`````_/^'``{`~RSwxyrrrw,,<7<727w7,hxmAFURRW~~_WW^_``[`[``",
"TTWT^Y^/```^`/)^W```'')~~~TLFvchfpfzfvCLLWWQ//~E~~RWR~TR/~TPTTWR",
"MBVSKKLYPYPPPLLVBKLLPTYeYRRTTUpufbCbvAKPKHSBMjjgfssayttaeas7tjjM",
"e7eeeeewet8eeeagfeee77e54;4;;<>2><57<:8eet8544#++oO++++@##;7;555",
"######;###*@4*#46;##@+++$>--;,X -,&<77<-;;;,;;7,@@#oXXXooXoo+-;@",
"+++XXXXXXOOOO+OOXXXX+-,;<rwhu77w8<-77577:;,,;57777770p7<75-o@@++",
"80<<<rw,,->;5,,-<7rr<3u<77<,<2<<<<<<<<,<<<<,<707<<<7<<77777<<,,<",
"0w<070u<<<<<<7<<,<<<,&r20<7<,<7<<<<<<<70rw2,<<,<<777w<,<070<<<,,",
"<<<<<<17ww,7<<<<<777ww<<<<<7w<<70<,ww<<<<,,<w<75<<,-,,,,<<<<7777",
"uiw<08et2rrtuffyu7,<<<w<,,7<<,,7<<wripfhxmmvvffifttpszxxhccp0ppi",
"AGGAASBBmvFAABSSBGNzyr80uwtepfzxmFFHHIILIHHGZVZSBFGFFHLHHLHGmFBF",
"TTTLCLSBbNNbbhsysvvvNCNxhABvmGuzT)_~)`[_`_'`]')`'_`[`'/)`)/~cH[G",
"RRGzl1e,::;@>&+,<75,7th1<yy67LtzKLILKPTTR~R~TJK~~~TT))~/)~/T~TWT",
"))RfpBvzfbbvviiiffsi7<fipfyepSUGSBANANNGSKGLM0MYTTUT/___)/)sPUI_",
"YPTPLTTISNmvbf29ysys,$tfttu7efhbMvbvvjfafsghMMNDGLPYGPTTYWRPUPPY",
"fgghfww:&-@<:<<<2ww<70,;><8>+++Xoo+@@##;,etetatassfg<7aaeteattad",
"5;-+oo+>,;<<7rcu7w00<<7<7<<777<<;;--++@o&<shhjMjghffstye87888858",
"+--7st7<7<7<<,,<<,,<7<,,<<<,<<075:<<72wte5,8tattte8488575;@OO...",
"<7,;<,,<<<u<7,<<70,00wu07wrr0urrrrttpfhhiy5;+++++++&+X++>-+>;<77",
"<17<<rtpfxvmAAFHLGHHHLFGHKLIHLLStbGHGANhthfe<,->;<;-<<w2007057<<",
"i0hmGGTRQ/___~_`Bn/{`]pG''``_`TTBT~~~RUv5bbvt<08100,,,,<<,<<<0<0",
"cGT~R~Q/~R~TTPLLIBLLLLTTTTRT!TvBTTTT~~~~TGABBy7;,>17w<,<7<<<,7pv"
};
