/* XPM */
static char *_d0b3a5744d04a6fde711a1775df2279[] = {
/* columns rows colors chars-per-pixel */
"64 64 18 1 ",
"  c #978964",
". c #9C8D66",
"X c #9E8F68",
"o c #9F906A",
"O c #A5956D",
"+ c #A8976E",
"@ c #A9986F",
"# c #A79770",
"$ c #A89770",
"% c #AD9C72",
"& c #B09F74",
"* c #B3A276",
"= c #B6A579",
"- c #B8A77A",
"; c #BBAA7B",
": c #C1AE7F",
"> c #C1AF80",
", c #C2B180",
/* pixels */
"=%&*#&*=*=**===;=@O*-%O#=;*#==OO;;*##=,;@@=**-==;;;=*==*=====;=;",
"**&$&=*&*==;===%O%=;&#&==%@=&o#>;&%#=;*%==**=*=;===*&*===;===;;=",
"****&***=;;;=&##=;*&&=*%#==#O->=%#@=;&%==*&=**===*=*&=;=====;===",
"===***======%#&==*&***#%=*@&-;*&&*;-&#*=***=**===%**:;****=;**==",
"=-==*=**=%##&==**&==&@=*&%=*==*&==**O*==%%*=*==%%*===%&&===*=;==",
";-=**=&&&##===&$&==*@&=*****=;===*%O&==***=%@**&*==&@#&===*;;*=;",
"==*==**&#%&===%%@@O@*=%%*=*=&=;*&&#=-*%**=**&&=**=&#&;;**&;===;;",
"=*==&**$%&*=&&&&O@*;***&%*=**===&@--**=****@*=**@@@*==**=;======",
"==***&%*&==%$%%$%*****@*==*=***@&===-*****=*=**@@%==*@&;===;;===",
"=*==*&=*==&$#&--***=&%*--*-=**+*=====***&=****@&***%@&***=====;=",
"-====&*&&&$#$=--*%%@*==**;==%O*=&*=&%&%**&***%**&&&%**&&=&*****=",
"=----=*&%%%%&;-*&@&*-=&&;=*@@*=**==***=**&=&%***%%@&&%*&*&*&=*==",
"=-=;==&$&&%&;-=**===*&*=%@@%==+%==***=&&%&@=****&&&%%%@%&&&*=;;=",
"-*=***%*&&*--*&*=*%%&=-*@%=-=*&*****=**@%&*&*==**&%&*%%&@&=**=;=",
"=***=-=*=*******%=*=-==%*==&****%&*=&&%&&&&***=**%&&=%%&&*****==",
"-***--===**&**&&***=&**===*@&**%**&@*&*%***=*****&&*@&&*@%*****=",
"-====********&***=*****=--*&&%*=*+&**=**--*=****&&*&&*=%##&*&*=;",
"*=---===**%*&**&=*=**==;;--*%=*&+&@*****-******%&&%*=**=*&#&=;**",
"*==;;;;===**&%&*=*%*====;-*-=&%***-*@****%+**&&********&&@*==*&*",
"==>>;==***=&%%***@**&&==****&%@&*=*@+&****&@&*%**&***=***===%#**",
"=;;==;=*==*%*==%+%=*%==&**==%@%==**@+&*;-*@%&&&&%#&&&***=;=&#==*",
";==;=:=****==*@@==*%===*&**@@-:=******=*&****&%&&&&&*&&*;;*&**==",
"*&=;;:===;**+O&;==****&**&++=-*%*%*****=*=***%**&&&%&&*;==*=**:=",
"%;:=*;====@X%;:*=@@%@%=*&@&-=***@&&*-*-**%**@**&&%&&&==*%%**=:=*",
";:*&%==**+O=;;***@*@*****&****%%**=**=**&**&&&***%@**=*+&*&=:=&*",
";*%&&&*;%@=;&&&&@*@********@%%O@**@==***-=*=&&**%%%***%**=::*=::",
"&&;&@&=@+;:%&%@@%*%****=****%@@@@%-=***==-;*&&&*@@***%**=:*&;:;*",
"*;*&**O&;;;*++%*==**=;****=*%%+%-=*@***=-*-=**&&****@-*;;**:;;*&",
"*&%*;O*:;=*@+@**=-::=@%@%**&@+%=*+@@%%**=**=****=**@*==;**;==*%%",
"O+&=O;:**%@+%&==:::*+@%*=*&%@@*@O%@%+&*=*==*@****-*%*=;=-;=*%==@",
"@=*O=;=*@+@*=====%@@***;=*++@*%@+@%%@**=***@****=*%*==-:=*%**=*@",
";&O====&@%&=;=*++@=;-=%@@%@%**@@@@*=%%@&*%%%@%***%*=*%*%%**-**%*",
"*@*=%*@+&@&::*++&=;-=*%*&&&*&@+%@**=*%%**@%%%**&%*=%%%%&***&%%=;",
"*=@+&++&&*;*+@@&=;-*******;*%%%%+@*%%*%**=***&****%%*****&@%@*;&",
":+**+.*&*;&+@&*&&%**=-=%*;&%%*&***@@%**==%@&&&**%%&*&*&*%O%=:=&=",
"&==++=@;;&+-*&***=**-==-*&%***@%%@%%@***@@@%*%%%%%%***%%@%;;%&:;",
"=:%**&-*+@=*&&*--=*=*=;=*&**;&%&@&&&**@@@***&****=**%%@@*;*@==%%",
"=%**&;***&@*&*--==*@%===**=;=;*@=*&&%@+@*=***=**%&&&%@*=;==*%%*-",
"@&+&:-*:*@--*****&&*==*=;==;;===-**@@@@&**===***%%&%@*==;=@%=;*%",
"%+*=*--@&-:--&&**&;-=@*;==**;==;-*@&&****=;***&*&*&%****@@=:*@%*",
"O;=*==+*::--&&*&*;-=&=**;;;===;;=&*&&&&*==&@*&%**&@*=*@O%-=@@*=@",
"==&*@+=,:-&+&&*-;-**=@+*=;:===;*==*=**&**&*=&*==&&***%@==%O&&@@@",
"@&*++::=*-****;-**==*@**==;==**=---====*%*;====*&&&&@***@O*%@*=*",
"**@=:=&*****-;-*=;*%@@***=-=*===------*&****;=*%%*&&***%%@&*=*&&",
"*@=:@@@***;-;;;;***%***@&==*-===;;-&@%*-&@%==%@%=**@*&&@%*=**@&&",
"@==@@@@=;;--*;;*=*@&=*@****==-==;;*+@==%@&**%O*=**@***&%**%%%**%",
"-=*+@*==;-**;;***@%*%*=*&**==-=;;*=--*O@&;=@O=;*@@=*%&**&@&*==**",
"*@+@:;=;-**::-;;;=*%**%%*======&&-;-@O&;:*@@==*@&=;*&*&%%%*===;=",
"@@%*::=**=;;:--;;*&&=&*=***===@&;;&O#=>-##&--%#*==*@&&****&*===%",
"*====-*&*=;;;;:;====*@*=*=**%@*--#O*;>*#&=;&##=*&@@**&*======*@@",
"*-;&**&=;-;---;--=*%@%=*=:*#&*=&O#*;>&##;=#O#=*&O%=*&&%&==*&&#%&",
":=%@@*==;;-***-;-*-&*==;=O@*;;*X#==*##%;=OO=--*#%==*=&%*&%%@%&&*",
"&@*&@=*&-=&=**-*;;=;;==#o=:;=#X&=-*O*;>*oO=-=#&*=*=&#%*&&@**&&=;",
"@&@*==&**&&**-*-;-;;=&o%:;*o o==;%#&-;*O#*==&*;;=*##**@**&##&-=#",
"@@==-*@=********;;-=%&;:*ooO*=;=##*-=#O&=;=%*===%#@#@&**%#&==*O@",
"*====&***%*****;==*&=;;%o#*;;;*%*;;=#o&;;*&===*##*&*===*%%==&#@&",
"==***%%%****@*;;;*&=:=OO=;;;&#%=>>=oo*=-#%;**@O#=;=====*==*@%#*=",
"=&%&***%*&***--;*&=;*o*=-;=##%=;;@ #*=;##-=*O#&=========*&%&%===",
"%%&@%**%****==%@*;:%O*;;;=%*=--%oO*;;;#o;=&O#=--=****=-=*&&&=;-*",
"+%@&@&*******@@*;;%#;;;:&%=;;=O.@;>>-OO;=*O#-;;*&**===***===;-*%",
"*&@@%****=*%@**-=#%=;-=%%=-=%Oo=;;;&O*>=#o#-;*%**======*===*=&@&",
"**&&%%**=*@%***+#*;:-%#%==%##*=;;=O#;,=oo*;=O%=;-==-===*==**&%**",
"**&@%=*%%***=%+%==:=#%=-%O@=;>;-%o*,-%o#;;&O&=======**==&**&==*=",
"=&@&=@@***=*%&**;;%#&-&##*;;>;=OO-;%%#=;;@O*====*-;=====*&===;;="
};
