/* XPM */
static char *_89ed28b501f47a5dc92e26e85e4a723[] = {
/* columns rows colors chars-per-pixel */
"64 64 121 2 ",
"   c #314733",
".  c #354B36",
"X  c #364D38",
"o  c #3A4E3B",
"O  c #3D523E",
"+  c #3B593E",
"@  c #40513F",
"#  c #3F5440",
"$  c #3D5B41",
"%  c #425642",
"&  c #445B45",
"*  c #485A47",
"=  c #475D48",
"-  c #4B5D4A",
";  c #515E4E",
":  c #545F50",
">  c #436046",
",  c #466249",
"<  c #4C634D",
"1  c #4B684E",
"2  c #50614F",
"3  c #4E6550",
"4  c #4E6A51",
"5  c #546553",
"6  c #596556",
"7  c #546B55",
"8  c #596957",
"9  c #576C58",
"0  c #5C6C5A",
"q  c #567057",
"w  c #577158",
"e  c #5C735C",
"r  c #5F785F",
"t  c #616D5E",
"y  c #61715F",
"u  c #5F7760",
"i  c #5F7860",
"p  c #656F60",
"a  c #647362",
"s  c #6A7566",
"d  c #647B64",
"f  c #697967",
"g  c #6D7768",
"h  c #6C7B6A",
"j  c #72766A",
"k  c #727D6E",
"l  c #757E71",
"z  c #787F72",
"x  c #678068",
"c  c #6C836C",
"v  c #71836F",
"b  c #758372",
"n  c #7A8475",
"m  c #758A74",
"M  c #798A77",
"N  c #7D8678",
"B  c #7D8B7A",
"V  c #7D927C",
"C  c #81867A",
"Z  c #828B7D",
"A  c #888A7E",
"S  c #81927F",
"D  c #868E81",
"F  c #8A8E82",
"G  c #859382",
"H  c #8B9285",
"J  c #869984",
"K  c #899A86",
"L  c #8E9689",
"P  c #8C9C8A",
"I  c #909287",
"U  c #91968A",
"Y  c #939A8D",
"T  c #989A8F",
"R  c #969D91",
"E  c #9A9E92",
"W  c #A19F94",
"Q  c #8EA08C",
"!  c #91A28E",
"~  c #95A492",
"^  c #9BA295",
"/  c #97A894",
"(  c #9AAA96",
")  c #9EA598",
"_  c #9EAC99",
"`  c #A0A297",
"'  c #A2A69B",
"]  c #A8A79C",
"[  c #A3AB9D",
"{  c #A8AA9F",
"}  c #A3B29E",
"|  c #A6ACA0",
" . c #ABADA2",
".. c #B0AFA5",
"X. c #A6B4A1",
"o. c #AAB4A4",
"O. c #ABB9A6",
"+. c #AFB2A8",
"@. c #AEBBA9",
"#. c #B2B4AA",
"$. c #B8B7AE",
"%. c #B1BDAC",
"&. c #B9BAAF",
"*. c #BBBCB3",
"=. c #C1BEB5",
"-. c #B3C0AE",
";. c #B6C2B1",
":. c #B9C5B3",
">. c #BDC8B7",
",. c #C3C3BA",
"<. c #C2CDBC",
"1. c #C5D0BE",
"2. c #CAD3C3",
"3. c #CED8C7",
"4. c #D5DDCC",
"5. c #DADFD0",
"6. c #DEE3D5",
"7. c #E0E3D7",
"8. c #E5EADB",
"9. c #EBF0E1",
"0. c #F0F2E7",
/* pixels */
"7 e U ~ } O./ ( / } @.O.g k y p k l h h a w M D M B l l k n R D - # 5 h ) ) l u ) $.+.| D a h D R `  . .+...' H ; # s * . k l 8 ",
"* - n ) X.( Q Q Q / X.M b l t h a a l t u f Z D L D n B B B R u w 3 - 2  . .F L R E L D d h i d n D E U U F I U l . o o ; t - * ",
"p b F [ @.K K K J J S h h g l b l n l u v b k l H R D Y ~ L k h d 9 9 0 n ) R h 7 D L m m x x V M Z H R / Z Y ^ l O 2 D z g O O ",
"H Y H [ } V V G V m b V v a g g s h k u b B B b l N D Y L b m l s w e y D ) ) 0 1 9 v m m m J G } ' [ X.O.( H R a # 0 D H n : l ",
"H D X.>.X.V S b n V M V v x m a 0 h h f k l h m D Z l Z Y l m a u u v h D N D a 7 4 d m m V J P @.%.-.} -.:.Y U g 6 t L R L R n ",
"D b  .2.@.! G J V G V c c c c x u 9 3 e k m m J ! o._ M Z Z G k u Z Y l N I U F e d S G ~ P P o.( @.O._ O.:.[ h z U D h l b 0 D ",
"& 5 ' ) f N X.X.~ Z V b m V V m c x 4 4 9 w i c m _ ( J n L L Y L N L P R +.| ' ) +.D Z R R ( >.R _ / ! O.( %.Y ) ' s a a X < D ",
"& o < - % f ' X./ Y M P K V K J V d 4 , , 4 u c J ~ ( Q Z z D R E ) [ R L B G R | Y v J D L L ) U J K / [  .^ Y L R E B a # - h ",
"$ = # k k y B R H P _  ./ P M M m u , 1 4 u x m K Q ~ ~ N N D k u k g < 0 0 9 - L B P ! ~ D L ~ G Z Y ) ) R H L ) ) D 9 9 - - 0 ",
"a h 3 k U h - a b M V G / G b k k c 7 4 7 c V V K / _ ~ Z G R D h t u k l k 9 - B Y P G L H ~ X.J Z ) ) Z Y ' ) ) R ; $ 5 $ 0 3 ",
"g 5 # s L l a 0 3 - 8 < v b k b Z b d u u c V J Q X.+.B b D l a l B b B R N h 0 s L @.| | Y Q ~ B H |  .l L ) h p 5 - 9 5 < < - ",
"t - o - Z 9 9 < - e 6 % h a V G J G m d d V Q Q X.%.%.L h g 8 6 g z B Z L g t 0 s D h G R D V J B G N Y k t y o $ 3 5 5 5 5 5 a ",
"O 5 * 2 0 O h k % * * 3 g 8 B b b b m c m J ~ X.O.O.%./ D b 9 o # l l B z k 3 o h M 6 9 9 Y L Z G L Y Y Y g X   - 3 # o - 0 9 ; ",
"2 # 0 l h % t 6 # - f b f 0 h g 3 h b B V V G +.} } X.O.) l t ; # 6 n n l t 9 - * 9 y N u N Y R R L R L Y g X = p # o = - : t * ",
"k - 5 g 9 # t e # # y h s a u 9 3 3 a b B h h G B N _ | R n s a 3 a B 0 k h 5 a a 9 B L D 3 9 3 h h h Z D n 0 9 k * ; s = * t 3 ",
"8 8 * $ - 8 k f 3 7 h a a l h a f d h a u u h u 0 f Z J Y H k 9 6 l N N Z n G R R b H N n b = < 3 % 8 = 9 s s a N # t 3 = 3 ; - ",
"* - % - 5 B n k b b s h h h a h t a e e 0 0 8 8 a l Z S Z B n 9 e N l l L S D R D D l a N N l & % - = 9 3 - 3 z D = = O # * * & ",
"# 0 5 0 l a n f u s w 0 y t h k e 9 h n h a s f a h B l h k # % u N Z L H L L L D H B N Z Z 3 a < # 3 - @ * - N s o o = * # # # ",
"- h k < 0 n c e s s 3 a e 0 0 t 9 5 6 y 0 9 a h a e h a a h # 3 0 b G V B G G D Y L ! Q ) P Z h 9 - 9 : ; # 3 t o O O O # * t k ",
"- 5 9 a N h s k s k 9 t 9 0 0 t 0 t t 0 0 = 9 f h l a a k u 9 Z L J K G B Z D Q Q V h V H S ~ R N ; 3 3 3 = # # # * O * - X t a ",
"= < f b l s p Z h 5 a h h a h y 9 p - t a 0 a h h k 9 3 e < n m P G V m c V G P m u d L D D D J z 5 8 * = - % 5 - % - * * # 0 3 ",
"3 a B l h 5 a Z B u s v k s s f a p 9 6 g a k f 6 h t = < 9 a K Q K d u u x V G m B m P ~ ~ Y D N 9 y 8 8 - = 6 - 3 s - * - * - ",
"5 N b b n 9 n h d u u e 9 n b s h 9 s l h h k b - 9 3 9 y s 9 k m m c 9 4 d M b N P P J v P | P Z t s s * 9 = = * 0 k # 3 3 # # ",
"0 k n n b Z G k w i x c u u h h l h h 9 = t g t 0 g h 8 f l 3 9 < d d 1 $ $ d V b k P G / ~ V m n h a s 8 3 8 - * ; s - 9 3 3 - ",
"y h l B J h d 4 4 c m m d w 7 9 = - a 0 - 5 s p 6 s s l h 3 v f 9 3 u $ $ > u m v v V S Q ! ~ B k b l b l 5 t 9 9 a < - n N 5 - ",
"b B B B b 3 u 9 w d m x d 9 9 5 9 9 t 9 0 t 5 - 0 h 5 3 < e M 0 = 9 w + > $ 1 u d 1 w v J V c B b N Z Z b 0 a a h a 5 5 3 s k k ",
"4 4 u B n f 9 4 4 d x d u u h a 0 = 5 g s 0 0 3 : 5 = 0 u d e g 9 3 4 $ $ , $ $ 1 $ $ 1 c m m M B N Z l l s a t s s l 0 # # l w ",
"9 e d n N h n e w x i u w e k f 9 3 3 6 p 6 5 y : 3 3 = m 9 = 0 0 f 9 $ $ $ $ $ $ $ $ > w x c c N a a g l k g : 3 s h 6 = a M 9 ",
"m m c m N n N d u w w w u d h f 9 u 3 s a 9 0 5 0 6 5 - 5 5 % % < B w $ $ $ $ > $ 1 4 d u w 9 e h k B n z z - 3 h H B u e n d u ",
"J Q J c b B V h u 1 $ 1 4 x m x d u a l k 6 0 a 0 0 t 0 s 6 - s N 5 v 9 > > $ 1 > 4 w d e 9 e 0 h l B D N 3 a * t D L G B b d m ",
"Q X.K c c M c h x u 1 > w e x d d d 9 g k b f u k h t 5 0 s 0 s 0 t t t u w u l b f f a u f g 0 l D n z D 8 u b l k l Z S h c V ",
"( @.Q Q V d d v c h c u h h b d d h s h N l l N h h k s p p g p 6 5 t k 0 h 0 a 0 h s y k l g t ; g s - 3 L L R L G L D H h d V ",
"( ! Q / V i i h v b m v g k f k k s G U F D H B n h l n v s s p 0 6 t p 6 - 6 z ; : n j p 6 ; - o 6 a a N F F Y N ^ H R ` b S ! ",
"m J X._ M i i c m M V b N D B g a a g z L Z b n N l h s n n p 8 p s h p p 6 : : @ % : * * g k t : - l U U Y H R z D H N D k c V ",
"w V V _ V c c V J c m h a b g a G N e h B L N n l h n h k t h t t 6 5 s t s t t - - 8 e 6 s z l y n Y H ` N F Z F Y R Y L 7 w v ",
"V ( ( / P V P P P M e 0 B v e l b p a p Z D Z I Z B j p 6 : s y 0 t h h y 0 t t i c m x s g k B p l U N j k s j H D D G d c P ~ ",
"-.;.>._ ~ X.Q S S c m m l Z D R F l s B Y Z N Z E n h p p s 0 p f h f s t 0 6 f c V Q V h h 8 f y 6 l T k g - s I F Z a x V @.-.",
"3.3.3.<.*./ V v V b k h ) E R R ^ R D B ^ | E k U U n n k M Z g k l h h g s p m m V ! ! G n t u k g 6 ; t 0 p 0 C ' Y z B X.;.1.",
"4.3.2.2.@.V D B F D B G P H B G Y G N G H ' ) R ^ A n B B ! ~ ~ P K J S J k k V m V Q ( ! J B k l N b g l L l p t I E L B P J 2.",
"K >.8.6.<.Z L Z R ' Q P P P P ~ J Q Y P K ~ [ [ #. .[ Z G @.} } / ! P P X._ P B M m J K K P / _ D L L D F Y M M k C D D N G J Q ",
":.6.4.>.>.B b N F U H | X.( ( X._ ~ X._ @._ b ) ) L | ^ P O.O._ _ O.@.P Z ~ ~ G J m V V Q _ X.@.J L R D G R Q L B g R D F z D :.",
"0.8.8.-.M H U H U L z _ @.@.X.( / P / X.X./ B I I D R ^ U ~ X.O.@.%.@._ P V S l b c V S P _ @./ L K G b k D L R Z k D U N l n 5.",
"( %.9.8.%.Z E E H H z N ;.O.R D B I / X.X.D D Y T I F ^ n L [ X.o.@.@._ _ ~ _ ~ P B V S J ! } _ S b n h k k b D H N l Z ` Z z N ",
"B Z &.&.` n E ` E E D l _ X.L N B k P ( R F ..F ` I E Y n D Y ~ ! ~ X.O.O.X._ _ ~ V V S V P Q Q M k b b k k g k N l Y ) { H N D ",
"C D F Z C T I T ) ` U E n F I U U F N C n D  .F ..' ^ I G Z H H M H L _ _ o.@.X.( ~ P ! V S J P b k ) G N l D N N Z D =. .^ z N ",
"I ` ` )  .E  .E {  .#.T F F ` ] E F z I Z T ..*...{ T n Z H Z M H R R ' B | >.;.} _ / _ J J Q K V N ^ D N Y Y L D | *.*.R L { E ",
"'  .E E ) ] +.#.| | )  ...I E ' { U ] ' { H ..I ` *.=.^  .U A Z [ +.| R R | <.;.} / } } / V P ~ L n n R Y Z D H ) L L $.#.E ..{ ",
"E W ..E E ` ` | #.{ B | ` '  .` R $.,.W ' E Y *.` U Y F U M K Y ^ +.*.R E | _ _ X.X.X.X./ _ Q L L D Z n N N L G ) R L T +.L L $.",
"F ` { L E { | {  .) L {  .$. .%.&...,.$.^ U U #. .` U N U E ` E H E +.n D Y L R O.O._ / L Y P G Q ( ~ Z D ^ R R +.R C L E F Y  .",
"' +.{ T ' { E | #.` D l E E L R ` T ] U U D ` #.#.` F N H S Z ^ #.' D E H Z D _ O.O.P J H D R ! ) @._ L Y { E Z U U C ' E U R | ",
"| +.#.) D E ' ) D N F D z N R { I I H U L ' ....$.] I ' -.-.-.>.>.;.B H Z z ~ :.X._ P P G H S ! _ o.) R E T L C C z n E { F H ^ ",
"R E ' ) +.*.{ ' | B G 2.R I ` ..Y E E ) *.*.` ^ =. .~ X.:.>.;.@.%.%.+.%.R :.2.:.} ! ~ ~ S S P ( | | R L F U I H H L D D z N Z N ",
"E D L Y E ^ E ` F n 7.5.z  .U I T n Z #.,.{ { Z  .Z B Q } } ( ! _ _ %.-.O.;.@._ / K Q K J P ) o.R ) ' [ R T L E L z N L N g l L ",
"^ E N H E D ) R ' z p s D E U T H s D ..W E H ] Z Z M S K Q K Q ! P / ~ _ _ ! P Q V J Q P ) | | ) ) E E ' D H F Z D Z D E n H T ",
"H D L I H E U L U A j j A D D C l y I ] U n n s k a d c m c m m m V J J V V M V S G G ~ +.#. .| L E T L R ) Y L L Y D D D L Y R ",
"D h Z ` ' E D z z z n Z k b D H V v k C s t y e 5 8 9 x m x x r x x i x d i d J J S L ) #.[ | { [ ) E L U T Y T Y H D N k N D n ",
"K Y ^ T A j n l z g b / K K ( Q V V m d w d d e w 7 q x V m d q i w w 4 1 w u |  .^ L +.,.R #.E { E ^ E Y | ) #.| Y L Z s g N D ",
"G T U g z t t 0 s t a Q S S ~ ! Q V c d e c q 4 9 y a x J m i 1 q q 4 > > 4 h +.*.,.#.+.' L ^ g +.' ' E )  .Y ) ) ) = N y a N R ",
"6 t 5 2 h k k n H ~ S / Q S S Q ! J v x y e 1 1 7 y e d V c a > $ , > $ , e D +.L F g ' ' n 0 D ' +.^ E R H H T k g # y a # 5 g ",
"* % 2 t 8 p M  .O. .} _ ! Q K m P V m d q y 0 , , 9 0 1 d m M O , , $ $ e ^ E n 3 g N ' k - % |  .^ L  .' Y ) g # 9 = X = h D Z ",
"% ; p 6 0 N o.-.@.X.O.O.} / J V b c d a e , 3 < & a P b b | R u b H 7 $ = a k 4 a 3 9 ' C @ : F { ' ^ { ' | | 0 % X O ; g t 3 % ",
"6 C I C L X.@.O.-.O.@.-.@.X.Q V m B a d e 9 e 3 r Y #.^ E #.*.#.Y n = , & $ O h T H s H  .p D ..*.{ ^ Z E  .k     # # a h O . . ",
"F T L U _ X.O.O.@.@.@.-.%.( V V G D P G h e l b B E D I E W T  .k 6 & q b 4 $ 9 ' T L ^ $.]  .$.*.*.#.C 6 Z t 6 o % 3 b - t g l ",
") E Z _ X.O.O.} } O.%.%.P Z V x j g C I h 4 k D D k a k s b ' L 7 O X N ..B a 5 s ' #.' E T F  .{ +.#.E F U ' ) 3 O l a : T Z U "
};
