/* XPM */
static char *_73195a1c8ec44b08e33aebb1aabab71[] = {
/* columns rows colors chars-per-pixel */
"64 64 45 1 ",
"  c #161616",
". c #1A1613",
"X c #1D1816",
"o c #1D1D1D",
"O c #231E1C",
"+ c #24211F",
"@ c #28221F",
"# c #1F2020",
"$ c #242424",
"% c #2A2624",
"& c #2C2926",
"* c #2C2B2B",
"= c #302724",
"- c #322A26",
"; c #332D2B",
": c #382F2C",
"> c #35312E",
", c #3A322E",
"< c #343332",
"1 c #3A3533",
"2 c #3D3936",
"3 c #373738",
"4 c #3D3B39",
"5 c #42352F",
"6 c #413733",
"7 c #423935",
"8 c #4A3C35",
"9 c #423D3B",
"0 c #493F3A",
"q c #503F38",
"w c #44413E",
"e c #4B423D",
"r c #52433C",
"t c #3F3F40",
"y c #454341",
"u c #4A4542",
"i c #4D4946",
"p c #4D4A49",
"a c #524641",
"s c #534945",
"d c #5B4B44",
"f c #524D4B",
"g c #5F4E48",
"h c #58504D",
"j c #555150",
/* pixels */
":>,2w7eriissrr815-=---%-:,>21151222>,1,,;:,1,>,-;,%@@O@O%;;,>19>",
"1;1277w77eusr8785--,,,--,,1,1142542551;&=;:,,;;>,>-OOOO@@-;>>>>>",
"11722,72277885875=-;5,,-;,>&&212<1<,,,::;::;;>,,;%OOO@&&&>-;&>1>",
":57,>>>11115,161--:-,55,,,-&>1>>>;;>::;;:::>>,&;-%O@OO%@@%;;;,7,",
"-:1:%&;>>;,1511:,-;,,,,>,,;11>&>>>>>:>;;>,>>>>;*-%@OX.@@@%;>;>,,",
"=--@=&;>::177766>;--:5;>,5222;&&>>2<,,,,>,--;;>$%@OoXX+O@;;,>,:;",
"--=%%&<3<;>29221>,;-;5<<5511>>>>>>22<1>>1>>;--**%@@$@oX+%;>>-;:=",
"====&*<*<<<3><>;>;;;;-*<&;;>;>>**><<<111>;;>;;$#@&&&;&@&&>>>;--&",
"oo#*******<<3tt33<<3**<#oo$###o #$****<<<<3<***<*<<<<33324<<**$#",
"ooo#**$$****<ttt33**<******$$*$#oo#$*<***3<*****$$***<*$*<**$$#o",
" #o ###$&$#$$***<*****<<**<*#$<*$##$$##$**$###$$$$$$$*<*$o##$*# ",
"$#$**33*$$$##oo #$##   ####**##$$$#o###$****$$**33*$*<33<**$*<*$",
"33*$***3*******$*$*$*$#o####$###oo#####$***$$$$***#$*33***$*3<<*",
"******3*333**$#*$#***$****$****$****$****$*#$**<******<*$#$$$$$*",
"o$3**<333<<*****<****$********$**<**$*****$**$**<*$$*$***$###oo ",
" #$**<**$$$$*$$***$*****<<<<**$$***$*$***<<*<3*3*##$*****$*$$#$#",
"*$$$*$##$$&#o#+#$&$$## #&<24****<*****<*<<<4t**&####***$%$%**$**",
"#$##########++####oo# o##$$$$**&**&&*****<**<*&$$$**$$####$$$$##",
"##$##$######+#+##+$+###$$%%%*&&%$&&&&$%&*%+$$$+&$*$$&&@O#o+++$##",
"##$$$$$*$%%%$%%$***>>>*1>&;;*&>&*<;*&%@@%#oO$$+%****&&&%$$O+$%$$",
"$$$******><***>>14141<4iiw11>;*><11>&&@@$#+%%O+&$;;&;&&&$$$%$&%#",
"$$$$$$*****>14<44<4444ijfiy942>>>>&;%@@@&&&&*&%%&&;,,,&%@$##$$$*",
"*$$*$$$$$#%*1t431412yippfiiei44>>>>&&&@O%&;>;%&O&;;,21%@%@&*<*$*",
"*******$&$*<44434iiyyyyyifwew2w1>22>>>,;;&&*&OOO&-;1;&-&;><<<*>*",
"<*****<<*<33334ywfu242t4w224w9w2294>1>,2;&&>;OOOO@@&%;&&;231333<",
"3*<<<**<3t3tt4222ww1<242412222224w422122111>&+@O@;;%&1>>;2424t44",
"333333<>*<<<3>12141124w922444244uy422w2221>;&&@@&&>>;,<;>>>34y44",
"4ttyt3*<33**><<<>11>>11222224>>44w1<2w22>;;;;>;>&;;>&>&&>2>244y4",
"4tpit<$**3>>*>>>14>1>>>>242111<241;1221>&&;;%>22>;;&><1>;;1<444<",
"4tttt4>><32*><;;>*>>&>>2479211>1<<;<>5>>&&;,12221;;><<21;;&<4444",
"ttwiit<<>*<311>>2111>>12w7w792441<>1>2,&;;,222>&;>>>111>1214tyy4",
"t4witwt>*><14422211212wwwwew21>11<11552>>>1921;&;>2>24224wytyiiy",
"wt4t3499<3212227w72ww74t22ww2>>244>,>;;;>2221>>;>1244w122ew44wwt",
"t4w42244792212715e551>;25175522tww2>;&;,>3,>>;>1<11w22,12w4424tw",
";<33444ww090w2785ee,:;>522242twt4ww1;;;;>;>>;;>;>111>,,1>122344<",
"&*<2wy9999wiw85877817717922ufuwywyye2;@@%;*;3>>;>>11>>>>1>12943;",
"**>324ww79w7758rrrrraew424wepwuiuyyy5>>%+&*;>;1<,>>1>>>,>2422<*&",
">;;>;*>7,,15588rrggrrw724wuipytwuuuy21>&;;<><<><1>1342>>221131>>",
",>1<;;:1:-,5588rrrdre87twufiuyytwwy42>1132&;<>;>>1<1442w2>1222>>",
"1>>:;>;;&&;,775qrrreaeewuwuwwuut2121&*112341111>;1114www1>,272,,",
"56515:;:-;-:5ee7r7ersdiewt2t49t4<23;&>><22442>22;;1111121>11,2::",
"777w876::261190urwweshhe999wy92><12*&*;2221<><<2>>>>*;;>11,,15,,",
"551,61,:777e07eewwweewiew4tt42<<<<;>>*14941>>122111>1>>111717557",
"7,,55787787w9wiirrpw4tuiyytt34t221<2224wtww254tt212w11>3>112577w",
"55500ee02wwwwweewifyw2wpptttt3t<3444t44414424t4t22,1<22722292166",
"5,170e012ew,t4wwiiueweepptyttttt42432w4t24229t42321114722744::15",
"%#  $$ooooo Xo#****$#***$<<*<<t33<*<<****$$&&&*<3*$&***<*&$$&*;*",
"***$%**$##$   $*$&$oo$*<*****#$**&$***&*&###o#*****<**<**&*<<<*&",
"*<<<<3<33<$$$$3*****$*********3<<**<33333*******33<3<*3<<***3***",
"$$******333*<*33<<<<<<<*$**$#$<3<3333333<<**$###$<<<333<****$*$$",
"**$*$*$<<*<*$**<**$$*$#$*$$*****<<**$&$##&###  #****$$$*$#$#**$*",
"**#$*<***33$$***<**$$$$****3333<*###oo$**#*#$$#*$#$#$$***#$$$***",
"*$$*<*<<<3<33*<3<<<<*<*$**********#*$$####$#o#**$#***#***$##****",
"$$****$$##$**$$#$**$$$$###*###*$***$$**$$*##*****$**$*#$*$$*$$*$",
"ooo$$###$*$***$$# o oo  #ooo##*******#$******<*********###$$ooo#",
"##$**$$$#****3*$#o$#oooo###### #$$#*##$$*$**<**<*$$$*$#$####o o#",
"$&***%&%*******&&$&$$$$@$$&$$+#+$$$$%$$*&$*&*****$$$$+#+$#$$$+$$",
"&*;****&**<<*>**;>><>;;&&>&&;&&@$$%@$@$$$@%$*&&&&&$$**$***&&%&*%",
"&*2323*<33t49942>>1242111152>1;&*&;%@%&&&;;&>;>-;;;;%%%&**&&;>>>",
"4322<><2ttt42229w1,212w957752,1,&*%%;;;;;>>:>1,,><>*&%;1***>>324",
"3131:<11wuu9w0022,,>,211w51511,,;>-&>;>11111::51211>%&>;;>1112w2",
">11w232279uuue8,5,>;,>;,,,121>&&&;;>>1112222651551:,;>;&**>12221",
">12w0797970euu97,:-;;,;:,:,w7>>,1;;;22421127ew1,,,:1>;&&;;;>>><>",
"2::2uuuuuuursae7,;;;;;:::-:22127w21,22w2127w266,:--:,;;=%>>;;><2"
};
