/* XPM */
static char *_3eff405f51446daedd5174c9e0038f7[] = {
/* columns rows colors chars-per-pixel */
"64 64 161 2 ",
"   c #F99E2D",
".  c #F69137",
"X  c #FC9636",
"o  c #FA9C35",
"O  c #FC973C",
"+  c #F79E3D",
"@  c #FC9D3C",
"#  c #E5A729",
"$  c #F4AD2B",
"%  c #FBAC2C",
"&  c #F4BC25",
"*  c #FBBE27",
"=  c #F4B22F",
"-  c #FBB42B",
";  c #F6BC2B",
":  c #FCBC2E",
">  c #EDA131",
",  c #F4A435",
"<  c #FBA435",
"1  c #F3AA34",
"2  c #FCAC34",
"3  c #F6A33A",
"4  c #FCA43D",
"5  c #F6AA3B",
"6  c #FCAC3B",
"7  c #FCB435",
"8  c #F6BD33",
"9  c #FCBC34",
"0  c #F6B239",
"q  c #FCB43C",
"w  c #F5BE39",
"e  c #FCBC3C",
"r  c #BEFE1C",
"t  c #C1FE1C",
"y  c #DDFE1C",
"u  c #F3E11C",
"i  c #EDFD1B",
"p  c #F6FD1F",
"a  c #F9FD1C",
"s  c #F7CE23",
"d  c #FDCD26",
"f  c #F7C32D",
"g  c #FCC42D",
"h  c #F6CC2A",
"j  c #FCCC2D",
"k  c #F3D321",
"l  c #FCD326",
"z  c #FCDC26",
"x  c #F6D32D",
"c  c #FCD32D",
"v  c #F6DB2A",
"b  c #FCDC2C",
"n  c #FCC334",
"m  c #F6CD32",
"M  c #FCCB34",
"N  c #FCC43C",
"B  c #F4CA3C",
"V  c #FCCC3B",
"C  c #F7D332",
"Z  c #FCD334",
"A  c #FCDB34",
"S  c #F7D73B",
"D  c #FCD33B",
"F  c #FDDB3C",
"G  c #CCFE21",
"H  c #C5FE2B",
"J  c #C8FE2A",
"K  c #D5FD23",
"L  c #DCFD25",
"P  c #D5FD2C",
"I  c #DBFD2C",
"U  c #D6FD32",
"Y  c #DBFD34",
"T  c #D6FE39",
"R  c #D8FC3D",
"E  c #FCE425",
"W  c #FDEC25",
"Q  c #FCE42C",
"!  c #FDEC2C",
"~  c #E3FD24",
"^  c #EDFD24",
"/  c #E4FC2C",
"(  c #ECFD2C",
")  c #FDF424",
"_  c #F2FC25",
"`  c #FBFB26",
"'  c #FCF32B",
"]  c #F4FD2C",
"[  c #FBFB2C",
"{  c #F7E231",
"}  c #FCE334",
"|  c #FDEB34",
" . c #FCE33B",
".. c #F7EA3D",
"X. c #FDEB3B",
"o. c #E5FD33",
"O. c #ECFD33",
"+. c #E3FD3C",
"@. c #EBFD3B",
"#. c #FCF333",
"$. c #F4FD33",
"%. c #FBFB34",
"&. c #FDF33B",
"*. c #F3FD3C",
"=. c #FBFB3B",
"-. c #FC9E43",
";. c #FC9C4A",
":. c #F5A544",
">. c #FCA443",
",. c #F5AD43",
"<. c #FCAC43",
"1. c #FCA44A",
"2. c #F6AC49",
"3. c #FCAB4B",
"4. c #F7B345",
"5. c #FCB443",
"6. c #FCBC43",
"7. c #FCB34B",
"8. c #FCBC4B",
"9. c #FDA450",
"0. c #FCAC53",
"q. c #FCA95D",
"w. c #FCB353",
"e. c #FCBB52",
"r. c #FDB359",
"t. c #FDC343",
"y. c #FCCC43",
"u. c #FCC44A",
"i. c #FCCB4B",
"p. c #FCD443",
"a. c #FDDB43",
"s. c #FDD34B",
"d. c #FCDB4B",
"f. c #FDC453",
"g. c #FDCB52",
"h. c #FDC35A",
"j. c #FCCB5B",
"k. c #FCD352",
"l. c #FDDC52",
"z. c #FDD658",
"x. c #FDDE5D",
"c. c #D6FE42",
"v. c #FCE343",
"b. c #FDEC42",
"n. c #FDE44B",
"m. c #FDEA4B",
"M. c #E3FD43",
"N. c #ECFD43",
"B. c #E5FD48",
"V. c #FCF343",
"C. c #F4FC43",
"Z. c #FBFC42",
"A. c #FDF44B",
"S. c #FCFA4B",
"D. c #FDE153",
"F. c #FDED52",
"G. c #FCEF59",
"H. c #FCF455",
"J. c #F4FB5B",
"K. c #FDCA65",
"L. c #EBFE6D",
/* pixels */
": D 6.y.F F i.6 X 6 7 } ! j D N g j D b #.' k.- ; u ~ [  .n w 1 :.1  .C m p.j.e 6 9.>.8.4.<.6 K.N 6 6 q - 7 e e D #.L.#.F D 6.6 ",
"6 7 Z A d.Z V -.-.<.7 f Z p.l.u.9 e M A #.W v.u.7 c Q | A J.p.,.:.B .. .D b.X.X. .y.>.5.k.t.>.6 <.>.N d.i.k.N V.Z.#.] O.S.X.a.6.",
"e 4 - n j S N 9.;.3.6 6.9 V n e q t.A A #.}  .e 6 c x h v S 8 4.:.# h C ..' @.[ '  .e 2 Z D 6.e V y. .m.n.Z V F A.[ o.( B.M.[ p.",
"6.y.p.t.6 $ q 3.;.>.<.g.9 N 8.t.p.N } | =.&.X.6.6 V N $ h ; 6.8.2.> $ x { ! *.o.' j 7.>.7 7 q M F M } | X.N e M | Q ) =.[ %.[ M ",
"5.V F v.N 4 4 t.1.w.5.<.<.< 6 D A M  .! ' ! c n 6.n 6.3 2 < w N :.+ 5 8 C { v E A 7 >.6 6 6 u.p.D 9 j v M e 4 9 #.=.b Q ' | b D ",
"q Z Z { | V 5 q >.3 q 5.0.-.6 M M F b | } A N 2 6 e u.6.4 5.o 4.:.:., 6.Q %.Z ; - X O X 1.7.7 j D V D j e 2 6 9 ! #.V N c Z Z n ",
"e D  .c X.m.q 6 1.w.<.1.1.<.t.j c a.a.V.X.g < i.V | F D e N 6.q 6 5.5.w & s j 4 >.3.;.w.e i.5.4.M Z q t.s.N 2 s.#.=.H.N e 9 q e ",
"D D v.A.X.F i.o >.4.3.e.7.5.9 9 p.p.D Z Z 9 1.N D } } A j  .D 6.4.0 4 0 0 Z D V u.7.3.t.V y.i.6.N g 6.N p.6 4 V =.C.$.n e 6 5.N ",
"D a.| =.] { 9 <.<.5.5.4.6 7.6 5.7 i.9 F N 1.u.V  .Q &.M V X.D 6.i.f.8.p.F } } | V p.e y.F n.y.f.u.V N p.t.6 3.M #.` W  .V 5.e D ",
"Z } #.W [ } n 6.i.p.N 6.i.e.4 4.h.6.t.Z p.<.e } A n g 9 q N e q u.N l.Z $.[ ' ! Z.A N t.V c y.p.N q e V 7 7.<.g b c c c n q N  .",
"A } ' Q l 9 q q 8.7 k.i.7 6.7.3.1.<.N F N 5.7 q 4 5.<.4 Z V t.a.u.u.D b [ $.[ #.%.A n e 9 V V m.q 8.6 n t.i.5.e i.9 7 4 6 q n Z ",
"} } } Z 9 t.>.5.N 4.1 i.V V 6.7.7.;.N V N 6 @ e i.i.6.<.n F F. .F e j } ) ' [ ' [ =.D q <.N d.V t.t.5.e V Z v.X.=.V.a.6 t.D N A ",
"b D 9 7 y.M D M V 4 <.g Q #.V.6.<.1.2 n N 1.5.V 9 q 5.5.e F F : e N Z } b ! ' #.O.@.*.F 6 V V i.9 A t.e F j  .' #.} : <.} ] &.Z ",
"M M V 5.e | V.' Z 6.t.V M Q } e g.6.5.e e 8.D N 6.1.1.>.e Z V i.4 V m.F j Q | Q W W %.@. .N 9 q A A V 6 q g c d Z M q N ! [ | N ",
"q 9 F s.l.#.' W Z e e F v.A n q u.a.D.e e e n e <.6.6.e q M q 5.3.n J.| D A j g Z Z b W ! e N y.Z A V <.3.2 < 7 e 5.q c %.[ b q ",
"5.D F p.A #.%.| y.q 7 &.$.#.Z u.6.c Z e V e i.6.f.t.F a.6.q 3.8.F D } Z 9 9 2 o 7 N V Z N 4 V V 9 M V <.5.5.1.6 6.6.4 9 b A M 5.",
"9  .M V a.b.E b V 3.2 b W %.&.p.k.6.2 5.: Z d.m.6.V }  .6.>.i.Z J.Z.} y.6 u.w.7.6.D n.D 5.i.V M q p.p.u.g.p.6.>.N } p.q D F y.q ",
"q j D #.M.Z.C.F N 5.<.7 j ! W &.D N 6 <.5.N  .F t.n Z Z t.N F %.o.@.&.} N  .a.N M &.} Z a.v.N N F ' $.%.] =.a.i.s.' W p.N D V e.",
"<.i.Z ) ( @.$.Z g.f.D } G.{ #.#.v.D 7.<.5.7.N p.D i.6.N y.i.c ' W b b D A b l p.c Q A Z } Z n.F S.#./ ( / o.Z.n. .! X.F F V V e ",
"q q n Q $.C.[ | V y.#.%.N.*.=.&.$.A i.8.w.3.e k.9 5.q N p.n.| [ } 9 2 9 n g V e j n M Z V M q A $.$.( ] I / @.V.j n | X.|  .t.e ",
"k.u.N } W $.' A M F } $.U Y *.C.$.&.D <.0.1.7.6.<.<.N V } | %.' D 5.7.q q q 9 9 g e V e 9 9 6 Z [ / O.I K K _ } q 9 #.*.&.A M N ",
"A a.N 9 l E b : V m.&.I K I ] O.! X.j 5.w.1.1.<.6.N }  .X.$.*.#.n 7.5.q 6 >.6 j.y.q 9 t.t.6 <.D W ( Y J H H I ( F e Q ] $.b.p.D ",
"V y.N a.N e e i.Z #.*.[ ^ ] O.O.} V 7 5.8.u.i.7.6 p.A Q | Q #.Z 6.>.@ 5.q 3.q V t.N q i.a.k.p.n.C.$.L G H r H L | e M E ' %. .X.",
"d.V 2 g n 7 2 2 : d  .E E Q ` [ F 5.5.g.y.9 p.6.e D n Z Z j j D y.1.z.6 e.h.<.7 N } 9 < 9 c Z Q [ $.~ I t t H P #.q q } ( O.#.p.",
"y.6.>.4 @ 8.V e e q : : - c [ ! V 6 5.e u.k.V p.q N y.9 N V e 7 6 q y.5.7 N u.V V D e 8.<.7 Z &.Z.] [ ` i P t G *.Z 9 j Q b A y.",
"q i.i.5.5.M Z p.N N N 4.6 n l M q 5.h.u.e M e N q n N V 6.p.<.<.4 9 N N 7 t.y.D p.N 6.t.u.i.Z #.&.$.R M.[ a y K o.} 6.e V X.b.V ",
"D v.d.h.0 y.k. .9 D D D p.t.2 p.D y.V p.u.e y.N 4 6 M Z k.t.7.7.5.N F p.N v.b.&.M Z 7 8 q 7 S | } %.I I @.[ ' ) ! Z q 6 n A X.F ",
"C.&.y.6.p.N N * 9 y.A a.A M 6 V  . . .a.p.F =.V 6.6.N Z  . .V N y.n A n.a.c { j n f V 6.5.2 N C n.} ) [ %.V.| Q  .M 6.5.q : ! %.",
"] #.i.q n N $ q t.D F F A V y.F.A.| %.X.| ] ( } V.F n j | #.F M A 9 * Z Z N M n D 6 6 e 6.-.  g n A Q c z b n l.p.7 4 >.V V A ' ",
"E } N 5.6.i.6.u.Z j D C | M S *.=.` / $.o.+.` [ Q n M 9 j #.M Z j 6.e 7 4.f } F A 5.-.7.u.e.7.N d.j g 7 t.N d.v.N @ >.5.n &.V.b ",
"M Z D 6.2 , 2 V D n .. .N 2 - ) / [ p ~ I U +.[ n 6 a.d.} j N 2 4 q n 5.1.,.f Z Z e 3.5.9 V >.$ f N i.e v.x.F  .u.7.e e 7 } O.#.",
"D n 9 e 5.u.3 w y.V } A s.5.V ! / o.[ ] O.O.+.! N 5.y. .b.F 5.7.8.p.M d.p.6.N t.N e q i.d.n.i.2 q t.t.D A a.A D u.i.p.6 6 l [ ! ",
"} j 2 6 0 7 + 8 B B X.j 9 q F b ) o.$.] [ #.X.A u.8.N M A D h.u.b.V.F X.V.Z y.y.q 6 6 N  .a.V 6.q 9 : n V p.V N 6.p.s.t.6 n j b ",
"g M e K.e.q 8.1 F V f 6 ,.@ - c { $.$.[ =.B.S. .D 5.4 8.e N u.e Z D  .C.! A D t.>.3.<.V v.F.V y.t.t.e : N B p.t.6 N V y.<.6 < % ",
">.@ @ < : 0 , 1 = 6 + 3 w.w.O 2 j ! _ ^ Y T +.#.A V p.p.V q O N a.F | =.} F n 7 6 7.6 n D M 9 u.y.n.V 7 u.s.D 7 i.t.D N y.y.<.3.",
"u.8.g.y.k.6 -.+ 3 4.6.n } D <.<.9 W #.` L / _ ' V F F M y.4 >.e n.X.$.A j e e 6 9.5.z.u.N 6 6.p.} *.&.b.D.p.p.y.7 N y.a.V.&.X.n.",
"| a.&.*.S.p.7.6 6.N ..C.&.D F i.6.D Z z W W ! l - n V f.6.1.5.V Z | c M e t.q @ e 6 6 6.6.w., p.| +.+.o.%.v. . .p.i.4 ; Q *.M.@.",
"_ $.#.O.! a.k.5.y.S ..=.[ =.=. .t.7 q j g 9 9 q 3.N v.m.t.3.5.M } b V D q 5.q @ q u.6.8.i.7.6.v.$.Y Y / ) a.} m y.s.f.t.A ! ] ( ",
"*.+.] #.#.S a.i.u.C | / / ( o.O.&.6.5.< <.t.u.p.p.X.&.X.v.g.6 7 A p.N N <.1.w.;.4 <.6 q V <.u.A ( ~ ] E j B f 2 0 0 0 w a.=.#.` ",
"' ( ] ' ' Q h t.t.j o.^ ] [ ( I ^ D u.u.8.A j *./ I P Y #.&.6.1.9 N e t.7.e.<.5.>.u.5.q 9 @ V b W ' ' a.j N 6.7.8.8.e.N v.=.$.$.",
"N.' *.=.O.' 9 6 q j &.( ] $.[ W Q F 6.@ <.9  .[ ^ L G ~ |  .D 6.4 6 <.y.6.3.1.4 0.< 6 7.5.1.e Z { *.' D 9 q < , w p.y.= f E $.#.",
"O.%.[ %.` j u.6.Z =.W [ O.] [ *.| n 6 6.N F ] L R ^ ~ c.$.j k.5.7.t.p.A V 6.7.w.1.3.<.e V k.u.j Q E g N u.8.3.5 0 f % 0 D | #.$.",
"$.B.%.[ [ Z 9 M  .*.[ #.$.[ ! ' } n F %.c d ` ( ^ o.~ ^ E D e <.q n A A y.e <.q 1.<.7.u.y.F V N g n q 2 4 4 1.<.>.3 5.p.c ! $.$.",
"$.%.$.' W a.6.N z &.A #.' ! A n N D #.] A 2 g ! ` O.] E Z F V p.6.t.M j i.t.i.t.i.5.q q V D D V n 2 >.-.9.1.3.1.0.-.q 7 c ! O.$.",
"B.*.$.*.#.v.k.6.M g V M j Z V e V =.! [ %.V 6 g b ` W F Z F b Q 6.e.q 7 e 9 N N V e q 6 V D y.q 6 >.1.<.e.j.8.3.0.e.4 e Z ! _ [ ",
"#.=.[ ' ` v.p.9 q 5.i.y.e N e >.V Q &.@.$.#.q 6 n j j V 7 N M v.e 8.7.8.5.5.7 p.b v.i.t.Z A Z } V t.u.y.a.a.e u.p.p.<.7 S ' [ $.",
"=.=.%.' b 9 9 i.6.5.6.5.>.7 N 5.7  .! ` ] W M 4 o 2 e D <.6 t.t.f.5.8.8.q e 6.n t.g  .b.#.#.] ' A 6.9 A  . .v.M V p.7 w } V.#.[ ",
"! C d Q n 4 6 V y.N a.n.i.V V t.N Z b.Q Q c V N 5.5.9 N N a.a.D t.g.6.V f.e q q q D #.o./ P ( #.V 6.6.i.: } | p.y.7 o D j Z #.#.",
"| 7 n l p.V X.#.A a.A  .F V V y.p.Z M n 7 6 5.q 8.<.n D F #.} D e 6.e N p.y.8.q e F =./ ~ I I *.X.6.q e e n g e 9 e 4 j } l.Z | ",
"F 5.n 9 9 F [ ( $.=.A.v.A V N D y.M D 6.1.1.6 p.p.5.n M n Q } V N t.p.N Z N 6.>.5.} @.] ] I ( W b N 5.5.e i.t.q >.<.1.N M  .X.&.",
"D N M u.g.V W ` [ $.&.| Z F V e N D F p.6 h.5.j b q 6 6 4 N M M X.p.e 7 2 5.4 4 D #.$.( Y / O.A p.6.5.t.N e e 1.w.1.8.u.6 g b ! ",
"M N N u.j.2 j #.[ ] %.X.V n 6 7 Z n.n.e e V p.F D 3.8.8.n y.u.7 9 6 4 3.w.1.8.1.n X.W ^ K ' [ V.v.5.9  .i.>.< 5.r.0.5.y.6.6.M j ",
"p.p.V t.e 4 9 j F | #.} p.i.e.4 g n M D M N D F y.8.p.A M N 2 6 <.1.V e.u.i.v.6.q M b ` ~ [ o.' M 5.e D p.6.5.>.<.1.< p.i.y.D t.",
"a.a.F F a.8.;.e D #.X.A.A e u.7.4 <.7 9 q M A F d.y.A } D y.u.8.6.N y.a.D V N 6.6 e M b b z ` | V 4 6 V 9 6 ;.;.;.5.5.n 7 9 t.D ",
" .l.D c V 6.<.e D F A Q M 3.p.V y.g.5.<.<.e b.b.V n Z Z v.D V F  .A.F X. .u.u.d.6.1.N a.V D | F N 6.5.e u.>.q.0.3.4 e e 8.6 e Z ",
"b.n.M t.e.7.1.2 V D F Z 6.6.y.a.v.F y.1.6.q n j e q e 9 | Z 7 Z &.A F c M y.6 V d.p.D a.V q e 6 e u.5.6 2 6 -.4 4 1.9 N < 6 N X.",
"$.F N k.l.s.6.1.e F } n M Z D | }  .V 6.t.k.N 8.y. .V q 9 e 6 A ] %.D n 2 N u.n. .&.d.N <.8.k.V M 6 >.1.3.3.<.4 1.1.7 2 -.7.e | ",
"b V 7 7 F j N e.<.7 * i.M D A #.! | N e n 9 h.q A [ #.p.N e 6.d z E b.M 5.D  .A V. .V <.@ d.v.| &.y.1.O 1.8.t.i.e 5.8.6.7.e.7 c ",
"g D 7 < N g.q >.5.5.6.5.e y.D  .} D p.y.t.2 6.q Z [ %.A 6 6 i.7 7 g f 1.5.N e V A  .i.7.>.V } } ' j 5.8.5.6.e N e 7 q 7.5.k.6.n ",
"V g q 4 q M 4 1.t.d.V N 6.6 9 F v.a.} F V <.6 t.c x A l.k.p.y.4.4 9 V 8.q N V u.n d.m.8.0.e j A b N y.M D k.e e e 4 V u.6 q N D ",
"a.v.s.6.5 2 >.6 V F Z D N 1.V  . . .b a.n 1.>.7 - y.p.n.S.S.b.t.4 6 N y.5.6 2 6.e g a.8.<.<.t.n n e D D Z s.6.q 4 e D y.<.9 Z a.",
"p.v.b.N 8.<.>.= n n D n 5.3.7 Z ! a.V p.N 7.6 2 : V V v #.' =.v.a.9 e d.6.7.1.w.6.7 V e 5.6.u.Z y.q - m.m.A a.t.5.M } X.k.6.q V ",
"v.A V q i.t.>.. o 2 N D e 6.4 : A V e e e y.v.v.A.=.=.{ b k v A g w w a.V 6.7.5.8.6 n 7 w.5.q Z V 3.6 b &.Z.b N N A A X.F V q 7 ",
"j F e 6.M 7 3.7.7.>.e Z F ! V 2 j F u.V  .} j c C ( P ] } l.m V , < p.M V u.h.6.e @ q 5.>.7.6.t.t.5.e M F c M q 6  .=.=.#.D <.2 "
};
